<svg viewBox="0 0 64 64" xmlns="http://www.w3.org/2000/svg"><circle cx="32" cy="32" r="13.55" fill="#ffcc00" class="fill-ffef3f"></circle><path d="M32 4a1.81 1.81 0 0 1 1.81 1.81v4.46a1.81 1.81 0 0 1-3.62 0V5.81A1.81 1.81 0 0 1 32 4ZM32 51.92a1.81 1.81 0 0 1 1.81 1.81v4.46a1.81 1.81 0 0 1-3.62 0v-4.46A1.81 1.81 0 0 1 32 51.92ZM60 32a1.81 1.81 0 0 1-1.81 1.81h-4.46a1.81 1.81 0 1 1 0-3.62h4.46A1.81 1.81 0 0 1 60 32ZM12.08 32a1.81 1.81 0 0 1-1.81 1.81H5.81a1.81 1.81 0 1 1 0-3.62h4.46A1.81 1.81 0 0 1 12.08 32ZM51.8 12.2a1.8 1.8 0 0 1 0 2.56l-3.16 3.15a1.8 1.8 0 0 1-2.55-2.55l3.15-3.16a1.8 1.8 0 0 1 2.56 0ZM17.91 46.09a1.79 1.79 0 0 1 0 2.55l-3.15 3.16a1.81 1.81 0 0 1-2.56-2.56l3.16-3.15a1.79 1.79 0 0 1 2.55 0ZM51.8 51.8a1.8 1.8 0 0 1-2.56 0l-3.15-3.16a1.8 1.8 0 0 1 2.55-2.55l3.16 3.15a1.8 1.8 0 0 1 0 2.56ZM17.91 17.91a1.79 1.79 0 0 1-2.55 0l-3.16-3.15a1.81 1.81 0 0 1 2.56-2.56l3.15 3.16a1.79 1.79 0 0 1 0 2.55Z" fill="#ffcc00" class="fill-ffef3f"></path></svg>